<svg width="31" height="35" viewBox="0 0 31 35" fill="none" xmlns="http://www.w3.org/2000/svg">
<mask id="path-1-inside-1_303_2880" fill="white">
<path fill-rule="evenodd" clip-rule="evenodd" d="M25.5 13C25.5 13.9832 25.0994 15.4318 24.3238 17.229C23.5661 18.985 22.5197 20.9197 21.3828 22.8217C19.4475 26.0595 17.3003 29.1197 16 30.9099C14.6997 29.1197 12.5525 26.0595 10.6172 22.8217C9.48034 20.9197 8.43392 18.985 7.67615 17.229C6.90059 15.4318 6.5 13.9832 6.5 13C6.5 7.75329 10.7533 3.5 16 3.5C21.2467 3.5 25.5 7.75329 25.5 13ZM27 13C27 18.2074 18.9178 29.4973 16.6091 32.6161C16.3015 33.0316 15.6985 33.0316 15.3909 32.6161C13.0822 29.4973 5 18.2074 5 13C5 6.92487 9.92487 2 16 2C22.0751 2 27 6.92487 27 13ZM16.2142 13.0004C16.2142 13.1188 16.1183 13.2147 15.9999 13.2147C15.8816 13.2147 15.7856 13.1188 15.7856 13.0004C15.7856 12.8821 15.8816 12.7861 15.9999 12.7861C16.1183 12.7861 16.2142 12.8821 16.2142 13.0004ZM20.7142 13.0004C20.7142 15.604 18.6036 17.7147 15.9999 17.7147C13.3963 17.7147 11.2856 15.604 11.2856 13.0004C11.2856 10.3968 13.3963 8.28613 15.9999 8.28613C18.6036 8.28613 20.7142 10.3968 20.7142 13.0004Z"/>
</mask>
<path fill-rule="evenodd" clip-rule="evenodd" d="M25.5 13C25.5 13.9832 25.0994 15.4318 24.3238 17.229C23.5661 18.985 22.5197 20.9197 21.3828 22.8217C19.4475 26.0595 17.3003 29.1197 16 30.9099C14.6997 29.1197 12.5525 26.0595 10.6172 22.8217C9.48034 20.9197 8.43392 18.985 7.67615 17.229C6.90059 15.4318 6.5 13.9832 6.5 13C6.5 7.75329 10.7533 3.5 16 3.5C21.2467 3.5 25.5 7.75329 25.5 13ZM27 13C27 18.2074 18.9178 29.4973 16.6091 32.6161C16.3015 33.0316 15.6985 33.0316 15.3909 32.6161C13.0822 29.4973 5 18.2074 5 13C5 6.92487 9.92487 2 16 2C22.0751 2 27 6.92487 27 13ZM16.2142 13.0004C16.2142 13.1188 16.1183 13.2147 15.9999 13.2147C15.8816 13.2147 15.7856 13.1188 15.7856 13.0004C15.7856 12.8821 15.8816 12.7861 15.9999 12.7861C16.1183 12.7861 16.2142 12.8821 16.2142 13.0004ZM20.7142 13.0004C20.7142 15.604 18.6036 17.7147 15.9999 17.7147C13.3963 17.7147 11.2856 15.604 11.2856 13.0004C11.2856 10.3968 13.3963 8.28613 15.9999 8.28613C18.6036 8.28613 20.7142 10.3968 20.7142 13.0004Z" fill="#B73A34"/>
<path d="M24.3238 17.229L6.87883 9.70095L6.87883 9.70095L24.3238 17.229ZM21.3828 22.8217L5.07403 13.0737L5.07403 13.0737L21.3828 22.8217ZM16 30.9099L0.627287 42.0759L16 63.2402L31.3727 42.0759L16 30.9099ZM10.6172 22.8217L26.926 13.0737L10.6172 22.8217ZM7.67615 17.229L25.1212 9.70096V9.70096L7.67615 17.229ZM16.6091 32.6161L31.8802 43.9207L16.6091 32.6161ZM15.3909 32.6161L30.662 21.3115L30.662 21.3115L15.3909 32.6161ZM41.7689 24.7571C42.7701 22.4367 44.5 18.0265 44.5 13H6.5C6.5 11.9937 6.59897 11.215 6.67697 10.7405C6.75771 10.2494 6.84643 9.90219 6.89561 9.72509C6.9875 9.39421 7.0213 9.3708 6.87883 9.70095L41.7689 24.7571ZM37.6915 32.5698C39.0523 30.2932 40.5549 27.5703 41.7689 24.7571L6.87883 9.70095C6.57728 10.3997 5.98702 11.5462 5.07403 13.0737L37.6915 32.5698ZM31.3727 42.0759C32.8298 40.0699 35.3442 36.4969 37.6915 32.5698L5.07403 13.0737C3.55082 15.622 1.77082 18.1696 0.627287 19.7439L31.3727 42.0759ZM-5.69153 32.5698C-3.3442 36.4969 -0.829754 40.0699 0.627287 42.0759L31.3727 19.7439C30.2292 18.1696 28.4492 15.622 26.926 13.0737L-5.69153 32.5698ZM-9.76886 24.7571C-8.55487 27.5703 -7.0523 30.2932 -5.69153 32.5698L26.926 13.0737C26.013 11.5462 25.4227 10.3997 25.1212 9.70096L-9.76886 24.7571ZM-12.5 13C-12.5 18.0265 -10.7701 22.4367 -9.76886 24.7571L25.1212 9.70096C24.9787 9.37081 25.0125 9.39421 25.1044 9.72509C25.1536 9.90219 25.2423 10.2494 25.323 10.7405C25.401 11.215 25.5 11.9937 25.5 13H-12.5ZM16 -15.5C0.259885 -15.5 -12.5 -2.74012 -12.5 13H25.5C25.5 18.2467 21.2467 22.5 16 22.5V-15.5ZM44.5 13C44.5 -2.74012 31.7401 -15.5 16 -15.5V22.5C10.7533 22.5 6.5 18.2467 6.5 13H44.5ZM31.8802 43.9207C33.1817 42.1626 36.2019 37.9856 38.9791 33.3394C40.3577 31.0329 41.8962 28.2479 43.1461 25.3514C44.1705 22.9774 46 18.3388 46 13H8C8 11.3529 8.29329 10.2982 8.3392 10.1326C8.40939 9.87954 8.41942 9.91674 8.25607 10.2953C7.91844 11.0777 7.29209 12.2864 6.36156 13.8432C4.52044 16.9235 2.34524 19.9508 1.33802 21.3115L31.8802 43.9207ZM0.119824 43.9207C8.02293 54.5968 23.9771 54.5968 31.8802 43.9207L1.33802 21.3115C8.62587 11.4665 23.3741 11.4665 30.662 21.3115L0.119824 43.9207ZM-14 13C-14 18.3388 -12.1705 22.9774 -11.1461 25.3514C-9.89617 28.2479 -8.35767 31.0329 -6.97906 33.3394C-4.20191 37.9856 -1.18165 42.1626 0.119839 43.9207L30.662 21.3115C29.6548 19.9508 27.4796 16.9235 25.6384 13.8432C24.7079 12.2864 24.0816 11.0777 23.7439 10.2953C23.5806 9.91674 23.5906 9.87954 23.6608 10.1326C23.7067 10.2982 24 11.3529 24 13H-14ZM16 -17C-0.568542 -17 -14 -3.56854 -14 13H24C24 17.4183 20.4183 21 16 21V-17ZM46 13C46 -3.56854 32.5685 -17 16 -17V21C11.5817 21 8 17.4183 8 13H46ZM15.9999 32.2147C26.6117 32.2147 35.2142 23.6122 35.2142 13.0004H-2.78578C-2.78578 2.62536 5.62487 -5.7853 15.9999 -5.7853V32.2147ZM-3.21436 13.0004C-3.21436 23.6122 5.38823 32.2147 15.9999 32.2147V-5.7853C26.3749 -5.7853 34.7856 2.6253 34.7856 13.0004H-3.21436ZM15.9999 -6.21387C5.38817 -6.21387 -3.21436 2.38866 -3.21436 13.0004H34.7856C34.7856 23.3755 26.375 31.7861 15.9999 31.7861V-6.21387ZM35.2142 13.0004C35.2142 2.38872 26.6117 -6.21387 15.9999 -6.21387V31.7861C5.62481 31.7861 -2.78578 23.3754 -2.78578 13.0004H35.2142ZM15.9999 36.7147C29.097 36.7147 39.7142 26.0975 39.7142 13.0004H1.71422C1.71422 5.11064 8.11015 -1.2853 15.9999 -1.2853V36.7147ZM-7.71436 13.0004C-7.71436 26.0975 2.90289 36.7147 15.9999 36.7147V-1.2853C23.8897 -1.2853 30.2856 5.11064 30.2856 13.0004H-7.71436ZM15.9999 -10.7139C2.90289 -10.7139 -7.71436 -0.0966198 -7.71436 13.0004H30.2856C30.2856 20.8902 23.8897 27.2861 15.9999 27.2861V-10.7139ZM39.7142 13.0004C39.7142 -0.0966172 29.097 -10.7139 15.9999 -10.7139V27.2861C8.11015 27.2861 1.71422 20.8902 1.71422 13.0004H39.7142Z" fill="#B73A34" mask="url(#path-1-inside-1_303_2880)"/>
</svg>
